<mxfile host="Electron" agent="Mozilla/5.0 (Windows NT 10.0; Win64; x64) AppleWebKit/537.36 (KHTML, like Gecko) draw.io/27.0.9 Chrome/134.0.6998.205 Electron/35.4.0 Safari/537.36" version="27.0.9">
  <diagram name="Страница — 1" id="m3Pw3HCpmGY_mU1CDSXD">
    <mxGraphModel dx="3679" dy="2867" grid="1" gridSize="10" guides="1" tooltips="1" connect="1" arrows="1" fold="1" page="1" pageScale="1" pageWidth="827" pageHeight="1169" math="0" shadow="0">
      <root>
        <mxCell id="0" />
        <mxCell id="1" parent="0" />
        <mxCell id="3PfA5iARih0jMsXSvzGV-1" value="&lt;i&gt;GameObject&lt;/i&gt;" style="swimlane;fontStyle=1;align=center;verticalAlign=top;childLayout=stackLayout;horizontal=1;startSize=26;horizontalStack=0;resizeParent=1;resizeParentMax=0;resizeLast=0;collapsible=1;marginBottom=0;whiteSpace=wrap;html=1;" parent="1" vertex="1">
          <mxGeometry x="340" y="50" width="240" height="230" as="geometry" />
        </mxCell>
        <mxCell id="3PfA5iARih0jMsXSvzGV-2" value="# x: int&lt;div&gt;# y: int&lt;/div&gt;&lt;div&gt;# color: String&lt;/div&gt;&lt;div&gt;&lt;br&gt;&lt;/div&gt;" style="text;strokeColor=none;fillColor=none;align=left;verticalAlign=top;spacingLeft=4;spacingRight=4;overflow=hidden;rotatable=0;points=[[0,0.5],[1,0.5]];portConstraint=eastwest;whiteSpace=wrap;html=1;" parent="3PfA5iARih0jMsXSvzGV-1" vertex="1">
          <mxGeometry y="26" width="240" height="54" as="geometry" />
        </mxCell>
        <mxCell id="3PfA5iARih0jMsXSvzGV-3" value="" style="line;strokeWidth=1;fillColor=none;align=left;verticalAlign=middle;spacingTop=-1;spacingLeft=3;spacingRight=3;rotatable=0;labelPosition=right;points=[];portConstraint=eastwest;strokeColor=inherit;" parent="3PfA5iARih0jMsXSvzGV-1" vertex="1">
          <mxGeometry y="80" width="240" height="8" as="geometry" />
        </mxCell>
        <mxCell id="3PfA5iARih0jMsXSvzGV-4" value="+ getX(): int&lt;div&gt;+ setX(int newValue): void&lt;/div&gt;&lt;div&gt;+ getY(): int&lt;div&gt;+ setY(int newValue): void&lt;/div&gt;&lt;/div&gt;&lt;div&gt;+ getColor(): int&lt;div&gt;+ setColor(String newValue): void&lt;/div&gt;&lt;/div&gt;&lt;div&gt;+ move(): void&lt;/div&gt;&lt;div&gt;+ draw(): void&lt;/div&gt;&lt;div&gt;+ GameObject(int x, int y, String color)&lt;/div&gt;" style="text;strokeColor=none;fillColor=none;align=left;verticalAlign=top;spacingLeft=4;spacingRight=4;overflow=hidden;rotatable=0;points=[[0,0.5],[1,0.5]];portConstraint=eastwest;whiteSpace=wrap;html=1;" parent="3PfA5iARih0jMsXSvzGV-1" vertex="1">
          <mxGeometry y="88" width="240" height="142" as="geometry" />
        </mxCell>
        <mxCell id="3PfA5iARih0jMsXSvzGV-5" value="Ball" style="swimlane;fontStyle=1;align=center;verticalAlign=top;childLayout=stackLayout;horizontal=1;startSize=26;horizontalStack=0;resizeParent=1;resizeParentMax=0;resizeLast=0;collapsible=1;marginBottom=0;whiteSpace=wrap;html=1;" parent="1" vertex="1">
          <mxGeometry x="610" y="1070" width="180" height="190" as="geometry" />
        </mxCell>
        <mxCell id="3PfA5iARih0jMsXSvzGV-6" value="- radius: int&lt;div&gt;- speed: int&lt;/div&gt;&lt;div&gt;&lt;br&gt;&lt;/div&gt;" style="text;strokeColor=none;fillColor=none;align=left;verticalAlign=top;spacingLeft=4;spacingRight=4;overflow=hidden;rotatable=0;points=[[0,0.5],[1,0.5]];portConstraint=eastwest;whiteSpace=wrap;html=1;" parent="3PfA5iARih0jMsXSvzGV-5" vertex="1">
          <mxGeometry y="26" width="180" height="44" as="geometry" />
        </mxCell>
        <mxCell id="3PfA5iARih0jMsXSvzGV-7" value="" style="line;strokeWidth=1;fillColor=none;align=left;verticalAlign=middle;spacingTop=-1;spacingLeft=3;spacingRight=3;rotatable=0;labelPosition=right;points=[];portConstraint=eastwest;strokeColor=inherit;" parent="3PfA5iARih0jMsXSvzGV-5" vertex="1">
          <mxGeometry y="70" width="180" height="8" as="geometry" />
        </mxCell>
        <mxCell id="3PfA5iARih0jMsXSvzGV-8" value="&lt;div&gt;+ getRadius(): int&lt;/div&gt;&lt;div&gt;+ setRadius(int newValue): void&lt;/div&gt;&lt;div&gt;+ getSpeed(): int&lt;/div&gt;&lt;div&gt;+ setSpeed(int newValue): void&lt;/div&gt;+ move(int speed): void&lt;div&gt;+ showdownBlock(Block block)&lt;/div&gt;&lt;div&gt;+ Ball(int radius, int speed)&lt;/div&gt;" style="text;strokeColor=none;fillColor=none;align=left;verticalAlign=top;spacingLeft=4;spacingRight=4;overflow=hidden;rotatable=0;points=[[0,0.5],[1,0.5]];portConstraint=eastwest;whiteSpace=wrap;html=1;" parent="3PfA5iARih0jMsXSvzGV-5" vertex="1">
          <mxGeometry y="78" width="180" height="112" as="geometry" />
        </mxCell>
        <mxCell id="3PfA5iARih0jMsXSvzGV-9" value="Block" style="swimlane;fontStyle=1;align=center;verticalAlign=top;childLayout=stackLayout;horizontal=1;startSize=26;horizontalStack=0;resizeParent=1;resizeParentMax=0;resizeLast=0;collapsible=1;marginBottom=0;whiteSpace=wrap;html=1;" parent="1" vertex="1">
          <mxGeometry x="90" y="320" width="160" height="200" as="geometry" />
        </mxCell>
        <mxCell id="3PfA5iARih0jMsXSvzGV-10" value="# length: int&lt;div&gt;# width: int&lt;/div&gt;&lt;div&gt;# skilldropout:&amp;nbsp;&lt;span style=&quot;text-align: center; background-color: transparent; color: light-dark(rgb(0, 0, 0), rgb(255, 255, 255));&quot;&gt;SkillDropout&lt;/span&gt;&lt;span style=&quot;background-color: transparent; color: light-dark(rgb(0, 0, 0), rgb(255, 255, 255));&quot;&gt;&amp;nbsp;&lt;/span&gt;&lt;/div&gt;" style="text;strokeColor=none;fillColor=none;align=left;verticalAlign=top;spacingLeft=4;spacingRight=4;overflow=hidden;rotatable=0;points=[[0,0.5],[1,0.5]];portConstraint=eastwest;whiteSpace=wrap;html=1;" parent="3PfA5iARih0jMsXSvzGV-9" vertex="1">
          <mxGeometry y="26" width="160" height="54" as="geometry" />
        </mxCell>
        <mxCell id="3PfA5iARih0jMsXSvzGV-11" value="" style="line;strokeWidth=1;fillColor=none;align=left;verticalAlign=middle;spacingTop=-1;spacingLeft=3;spacingRight=3;rotatable=0;labelPosition=right;points=[];portConstraint=eastwest;strokeColor=inherit;" parent="3PfA5iARih0jMsXSvzGV-9" vertex="1">
          <mxGeometry y="80" width="160" height="8" as="geometry" />
        </mxCell>
        <mxCell id="3PfA5iARih0jMsXSvzGV-12" value="&lt;div&gt;+ getLength(): int&lt;/div&gt;&lt;div&gt;+ setLength(int newValue)&lt;/div&gt;&lt;div&gt;&lt;div&gt;+ getWidth(): int&lt;/div&gt;&lt;div&gt;+ setWidth(int newValue)&lt;/div&gt;&lt;/div&gt;+ move(): void&lt;div&gt;+ destroy(): void&lt;/div&gt;&lt;div&gt;+ Block(int length, int width)&lt;/div&gt;" style="text;strokeColor=none;fillColor=none;align=left;verticalAlign=top;spacingLeft=4;spacingRight=4;overflow=hidden;rotatable=0;points=[[0,0.5],[1,0.5]];portConstraint=eastwest;whiteSpace=wrap;html=1;" parent="3PfA5iARih0jMsXSvzGV-9" vertex="1">
          <mxGeometry y="88" width="160" height="112" as="geometry" />
        </mxCell>
        <mxCell id="3PfA5iARih0jMsXSvzGV-13" value="Platform" style="swimlane;fontStyle=1;align=center;verticalAlign=top;childLayout=stackLayout;horizontal=1;startSize=26;horizontalStack=0;resizeParent=1;resizeParentMax=0;resizeLast=0;collapsible=1;marginBottom=0;whiteSpace=wrap;html=1;" parent="1" vertex="1">
          <mxGeometry x="340" y="710" width="240" height="240" as="geometry" />
        </mxCell>
        <mxCell id="3PfA5iARih0jMsXSvzGV-14" value="- length: int&lt;div&gt;- width: int&lt;/div&gt;&lt;div&gt;- speed: int&lt;/div&gt;" style="text;strokeColor=none;fillColor=none;align=left;verticalAlign=top;spacingLeft=4;spacingRight=4;overflow=hidden;rotatable=0;points=[[0,0.5],[1,0.5]];portConstraint=eastwest;whiteSpace=wrap;html=1;" parent="3PfA5iARih0jMsXSvzGV-13" vertex="1">
          <mxGeometry y="26" width="240" height="54" as="geometry" />
        </mxCell>
        <mxCell id="3PfA5iARih0jMsXSvzGV-15" value="" style="line;strokeWidth=1;fillColor=none;align=left;verticalAlign=middle;spacingTop=-1;spacingLeft=3;spacingRight=3;rotatable=0;labelPosition=right;points=[];portConstraint=eastwest;strokeColor=inherit;" parent="3PfA5iARih0jMsXSvzGV-13" vertex="1">
          <mxGeometry y="80" width="240" height="8" as="geometry" />
        </mxCell>
        <mxCell id="3PfA5iARih0jMsXSvzGV-16" value="&lt;div&gt;+ getLenght(): int&lt;/div&gt;&lt;div&gt;+ setLength(int newValue)&lt;/div&gt;&lt;div&gt;&lt;div&gt;+ getWidht(): int&lt;/div&gt;&lt;div&gt;+ setWidth(int newValue)&lt;/div&gt;&lt;/div&gt;&lt;div&gt;&lt;div&gt;+ getSpeed(): int&lt;/div&gt;&lt;div&gt;+ setSpeed(int newValue): void&lt;/div&gt;&lt;/div&gt;&lt;div&gt;+ move(int speed): void&lt;/div&gt;&lt;div&gt;+ snowdownBall(Ball ball)&lt;/div&gt;&lt;div&gt;+ Platform(int length, int width, speed)&lt;/div&gt;" style="text;strokeColor=none;fillColor=none;align=left;verticalAlign=top;spacingLeft=4;spacingRight=4;overflow=hidden;rotatable=0;points=[[0,0.5],[1,0.5]];portConstraint=eastwest;whiteSpace=wrap;html=1;" parent="3PfA5iARih0jMsXSvzGV-13" vertex="1">
          <mxGeometry y="88" width="240" height="152" as="geometry" />
        </mxCell>
        <mxCell id="3PfA5iARih0jMsXSvzGV-17" value="" style="endArrow=block;endFill=0;endSize=12;html=1;rounded=0;exitX=0.5;exitY=0;exitDx=0;exitDy=0;" parent="1" source="3PfA5iARih0jMsXSvzGV-9" target="3PfA5iARih0jMsXSvzGV-4" edge="1">
          <mxGeometry width="160" relative="1" as="geometry">
            <mxPoint x="130" y="370" as="sourcePoint" />
            <mxPoint x="290" y="370" as="targetPoint" />
          </mxGeometry>
        </mxCell>
        <mxCell id="3PfA5iARih0jMsXSvzGV-18" value="" style="endArrow=block;endFill=0;endSize=12;html=1;rounded=0;exitX=0.5;exitY=0;exitDx=0;exitDy=0;entryX=0.936;entryY=1.002;entryDx=0;entryDy=0;entryPerimeter=0;" parent="1" source="3PfA5iARih0jMsXSvzGV-5" target="3PfA5iARih0jMsXSvzGV-4" edge="1">
          <mxGeometry width="160" relative="1" as="geometry">
            <mxPoint x="390" y="430" as="sourcePoint" />
            <mxPoint x="491" y="320" as="targetPoint" />
          </mxGeometry>
        </mxCell>
        <mxCell id="3PfA5iARih0jMsXSvzGV-19" value="" style="endArrow=block;endFill=0;endSize=12;html=1;rounded=0;exitX=0.5;exitY=0;exitDx=0;exitDy=0;" parent="1" source="3PfA5iARih0jMsXSvzGV-13" target="3PfA5iARih0jMsXSvzGV-4" edge="1">
          <mxGeometry width="160" relative="1" as="geometry">
            <mxPoint x="290" y="450" as="sourcePoint" />
            <mxPoint x="391" y="340" as="targetPoint" />
          </mxGeometry>
        </mxCell>
        <mxCell id="3PfA5iARih0jMsXSvzGV-24" value="SilverBlock" style="swimlane;fontStyle=1;align=center;verticalAlign=top;childLayout=stackLayout;horizontal=1;startSize=26;horizontalStack=0;resizeParent=1;resizeParentMax=0;resizeLast=0;collapsible=1;marginBottom=0;whiteSpace=wrap;html=1;" parent="1" vertex="1">
          <mxGeometry x="25" y="600" width="290" height="140" as="geometry" />
        </mxCell>
        <mxCell id="3PfA5iARih0jMsXSvzGV-25" value="- CntBeforeSestruction: int" style="text;strokeColor=none;fillColor=none;align=left;verticalAlign=top;spacingLeft=4;spacingRight=4;overflow=hidden;rotatable=0;points=[[0,0.5],[1,0.5]];portConstraint=eastwest;whiteSpace=wrap;html=1;" parent="3PfA5iARih0jMsXSvzGV-24" vertex="1">
          <mxGeometry y="26" width="290" height="26" as="geometry" />
        </mxCell>
        <mxCell id="3PfA5iARih0jMsXSvzGV-26" value="" style="line;strokeWidth=1;fillColor=none;align=left;verticalAlign=middle;spacingTop=-1;spacingLeft=3;spacingRight=3;rotatable=0;labelPosition=right;points=[];portConstraint=eastwest;strokeColor=inherit;" parent="3PfA5iARih0jMsXSvzGV-24" vertex="1">
          <mxGeometry y="52" width="290" height="8" as="geometry" />
        </mxCell>
        <mxCell id="3PfA5iARih0jMsXSvzGV-27" value="&lt;span style=&quot;color: rgb(0, 0, 0); font-family: Helvetica; font-size: 12px; font-style: normal; font-variant-ligatures: normal; font-variant-caps: normal; font-weight: 400; letter-spacing: normal; orphans: 2; text-align: left; text-indent: 0px; text-transform: none; widows: 2; word-spacing: 0px; -webkit-text-stroke-width: 0px; white-space: normal; background-color: rgb(236, 236, 236); text-decoration-thickness: initial; text-decoration-style: initial; text-decoration-color: initial; display: inline !important; float: none;&quot;&gt;+ getCntBeforeSestruction(): int&lt;/span&gt;&lt;div&gt;+ setCntBeforeSestruction(): void&lt;br&gt;&lt;div&gt;+ CheckCntForDestroy(int&amp;nbsp;&lt;span style=&quot;background-color: transparent; color: light-dark(rgb(0, 0, 0), rgb(255, 255, 255));&quot;&gt;CntBeforeSestruction&lt;/span&gt;&lt;span style=&quot;background-color: transparent; color: light-dark(rgb(0, 0, 0), rgb(255, 255, 255));&quot;&gt;)&lt;/span&gt;&lt;/div&gt;&lt;div&gt;&lt;span style=&quot;background-color: transparent; color: light-dark(rgb(0, 0, 0), rgb(255, 255, 255));&quot;&gt;+ SilverBlock(int CntBefore&lt;/span&gt;&lt;span style=&quot;background-color: transparent; color: light-dark(rgb(0, 0, 0), rgb(255, 255, 255));&quot;&gt;Sestruction&lt;/span&gt;&lt;span style=&quot;background-color: transparent; color: light-dark(rgb(0, 0, 0), rgb(255, 255, 255));&quot;&gt;)&lt;/span&gt;&lt;/div&gt;&lt;div&gt;&lt;br&gt;&lt;/div&gt;&lt;/div&gt;" style="text;strokeColor=none;fillColor=none;align=left;verticalAlign=top;spacingLeft=4;spacingRight=4;overflow=hidden;rotatable=0;points=[[0,0.5],[1,0.5]];portConstraint=eastwest;whiteSpace=wrap;html=1;" parent="3PfA5iARih0jMsXSvzGV-24" vertex="1">
          <mxGeometry y="60" width="290" height="80" as="geometry" />
        </mxCell>
        <mxCell id="3PfA5iARih0jMsXSvzGV-32" value="" style="endArrow=block;endFill=0;endSize=12;html=1;rounded=0;exitX=0.5;exitY=0;exitDx=0;exitDy=0;" parent="1" source="3PfA5iARih0jMsXSvzGV-24" target="3PfA5iARih0jMsXSvzGV-9" edge="1">
          <mxGeometry width="160" relative="1" as="geometry">
            <mxPoint x="-150" y="585" as="sourcePoint" />
            <mxPoint x="-30" y="515" as="targetPoint" />
          </mxGeometry>
        </mxCell>
        <mxCell id="3PfA5iARih0jMsXSvzGV-33" value="SkillDropout" style="swimlane;fontStyle=1;align=center;verticalAlign=top;childLayout=stackLayout;horizontal=1;startSize=26;horizontalStack=0;resizeParent=1;resizeParentMax=0;resizeLast=0;collapsible=1;marginBottom=0;whiteSpace=wrap;html=1;" parent="1" vertex="1">
          <mxGeometry x="-240" y="320" width="230" height="90" as="geometry" />
        </mxCell>
        <mxCell id="3PfA5iARih0jMsXSvzGV-34" value="&lt;div&gt;- skill: Skill&lt;/div&gt;" style="text;strokeColor=none;fillColor=none;align=left;verticalAlign=top;spacingLeft=4;spacingRight=4;overflow=hidden;rotatable=0;points=[[0,0.5],[1,0.5]];portConstraint=eastwest;whiteSpace=wrap;html=1;" parent="3PfA5iARih0jMsXSvzGV-33" vertex="1">
          <mxGeometry y="26" width="230" height="24" as="geometry" />
        </mxCell>
        <mxCell id="3PfA5iARih0jMsXSvzGV-35" value="" style="line;strokeWidth=1;fillColor=none;align=left;verticalAlign=middle;spacingTop=-1;spacingLeft=3;spacingRight=3;rotatable=0;labelPosition=right;points=[];portConstraint=eastwest;strokeColor=inherit;" parent="3PfA5iARih0jMsXSvzGV-33" vertex="1">
          <mxGeometry y="50" width="230" height="8" as="geometry" />
        </mxCell>
        <mxCell id="3PfA5iARih0jMsXSvzGV-36" value="&lt;div&gt;&lt;div&gt;+ GenerateSkill(): Skill&lt;/div&gt;&lt;/div&gt;" style="text;strokeColor=none;fillColor=none;align=left;verticalAlign=top;spacingLeft=4;spacingRight=4;overflow=hidden;rotatable=0;points=[[0,0.5],[1,0.5]];portConstraint=eastwest;whiteSpace=wrap;html=1;" parent="3PfA5iARih0jMsXSvzGV-33" vertex="1">
          <mxGeometry y="58" width="230" height="32" as="geometry" />
        </mxCell>
        <mxCell id="AGIxf8Lw9R6EGcAsbaSd-14" value="" style="endArrow=diamondThin;endFill=1;endSize=24;html=1;rounded=0;entryX=-0.011;entryY=0.05;entryDx=0;entryDy=0;entryPerimeter=0;exitX=0.998;exitY=0.129;exitDx=0;exitDy=0;exitPerimeter=0;" edge="1" parent="1" source="3PfA5iARih0jMsXSvzGV-33" target="3PfA5iARih0jMsXSvzGV-9">
          <mxGeometry width="160" relative="1" as="geometry">
            <mxPoint x="-110" y="330" as="sourcePoint" />
            <mxPoint x="50" y="330" as="targetPoint" />
          </mxGeometry>
        </mxCell>
        <mxCell id="AGIxf8Lw9R6EGcAsbaSd-15" value="&lt;i&gt;Skill&lt;/i&gt;" style="swimlane;fontStyle=1;align=center;verticalAlign=top;childLayout=stackLayout;horizontal=1;startSize=26;horizontalStack=0;resizeParent=1;resizeParentMax=0;resizeLast=0;collapsible=1;marginBottom=0;whiteSpace=wrap;html=1;" vertex="1" parent="1">
          <mxGeometry x="-230" y="620" width="210" height="150" as="geometry" />
        </mxCell>
        <mxCell id="AGIxf8Lw9R6EGcAsbaSd-16" value="# name: String&lt;div&gt;#&amp;nbsp;duration: int&lt;/div&gt;" style="text;strokeColor=none;fillColor=none;align=left;verticalAlign=top;spacingLeft=4;spacingRight=4;overflow=hidden;rotatable=0;points=[[0,0.5],[1,0.5]];portConstraint=eastwest;whiteSpace=wrap;html=1;" vertex="1" parent="AGIxf8Lw9R6EGcAsbaSd-15">
          <mxGeometry y="26" width="210" height="44" as="geometry" />
        </mxCell>
        <mxCell id="AGIxf8Lw9R6EGcAsbaSd-17" value="" style="line;strokeWidth=1;fillColor=none;align=left;verticalAlign=middle;spacingTop=-1;spacingLeft=3;spacingRight=3;rotatable=0;labelPosition=right;points=[];portConstraint=eastwest;strokeColor=inherit;" vertex="1" parent="AGIxf8Lw9R6EGcAsbaSd-15">
          <mxGeometry y="70" width="210" height="8" as="geometry" />
        </mxCell>
        <mxCell id="AGIxf8Lw9R6EGcAsbaSd-18" value="+ getNameSkill(): String&lt;div&gt;+ setNameSkill(String newValue): void&lt;/div&gt;&lt;div&gt;+ Skill(String name, int duration)&lt;/div&gt;" style="text;strokeColor=none;fillColor=none;align=left;verticalAlign=top;spacingLeft=4;spacingRight=4;overflow=hidden;rotatable=0;points=[[0,0.5],[1,0.5]];portConstraint=eastwest;whiteSpace=wrap;html=1;" vertex="1" parent="AGIxf8Lw9R6EGcAsbaSd-15">
          <mxGeometry y="78" width="210" height="72" as="geometry" />
        </mxCell>
        <mxCell id="AGIxf8Lw9R6EGcAsbaSd-19" value="" style="endArrow=diamondThin;endFill=1;endSize=24;html=1;rounded=0;exitX=0.5;exitY=0;exitDx=0;exitDy=0;" edge="1" parent="1" source="AGIxf8Lw9R6EGcAsbaSd-15" target="3PfA5iARih0jMsXSvzGV-33">
          <mxGeometry width="160" relative="1" as="geometry">
            <mxPoint x="-360" y="320" as="sourcePoint" />
            <mxPoint x="-262" y="320" as="targetPoint" />
          </mxGeometry>
        </mxCell>
        <mxCell id="AGIxf8Lw9R6EGcAsbaSd-26" value="&lt;b&gt;&amp;lt;interface&amp;gt;&lt;/b&gt;&lt;div&gt;&lt;b&gt;activeSkill&lt;/b&gt;&lt;/div&gt;" style="swimlane;fontStyle=0;childLayout=stackLayout;horizontal=1;startSize=26;fillColor=none;horizontalStack=0;resizeParent=1;resizeParentMax=0;resizeLast=0;collapsible=1;marginBottom=0;whiteSpace=wrap;html=1;" vertex="1" parent="1">
          <mxGeometry x="-520" y="665" width="180" height="60" as="geometry" />
        </mxCell>
        <mxCell id="AGIxf8Lw9R6EGcAsbaSd-27" value="+ activeSkill() : void" style="text;strokeColor=none;fillColor=none;align=left;verticalAlign=top;spacingLeft=4;spacingRight=4;overflow=hidden;rotatable=0;points=[[0,0.5],[1,0.5]];portConstraint=eastwest;whiteSpace=wrap;html=1;" vertex="1" parent="AGIxf8Lw9R6EGcAsbaSd-26">
          <mxGeometry y="26" width="180" height="34" as="geometry" />
        </mxCell>
        <mxCell id="AGIxf8Lw9R6EGcAsbaSd-28" value="" style="endArrow=block;dashed=1;endFill=0;endSize=12;html=1;rounded=0;" edge="1" parent="1" source="AGIxf8Lw9R6EGcAsbaSd-15" target="AGIxf8Lw9R6EGcAsbaSd-26">
          <mxGeometry width="160" relative="1" as="geometry">
            <mxPoint x="-530" y="250" as="sourcePoint" />
            <mxPoint x="-370" y="250" as="targetPoint" />
          </mxGeometry>
        </mxCell>
        <mxCell id="AGIxf8Lw9R6EGcAsbaSd-29" value="BigPlatform" style="swimlane;fontStyle=1;align=center;verticalAlign=top;childLayout=stackLayout;horizontal=1;startSize=26;horizontalStack=0;resizeParent=1;resizeParentMax=0;resizeLast=0;collapsible=1;marginBottom=0;whiteSpace=wrap;html=1;" vertex="1" parent="1">
          <mxGeometry x="70" y="1020" width="400" height="120" as="geometry" />
        </mxCell>
        <mxCell id="AGIxf8Lw9R6EGcAsbaSd-30" value="- bigLength: int&lt;div&gt;- bigWidth: int&lt;/div&gt;" style="text;strokeColor=none;fillColor=none;align=left;verticalAlign=top;spacingLeft=4;spacingRight=4;overflow=hidden;rotatable=0;points=[[0,0.5],[1,0.5]];portConstraint=eastwest;whiteSpace=wrap;html=1;" vertex="1" parent="AGIxf8Lw9R6EGcAsbaSd-29">
          <mxGeometry y="26" width="400" height="44" as="geometry" />
        </mxCell>
        <mxCell id="AGIxf8Lw9R6EGcAsbaSd-31" value="" style="line;strokeWidth=1;fillColor=none;align=left;verticalAlign=middle;spacingTop=-1;spacingLeft=3;spacingRight=3;rotatable=0;labelPosition=right;points=[];portConstraint=eastwest;strokeColor=inherit;" vertex="1" parent="AGIxf8Lw9R6EGcAsbaSd-29">
          <mxGeometry y="70" width="400" height="8" as="geometry" />
        </mxCell>
        <mxCell id="AGIxf8Lw9R6EGcAsbaSd-32" value="+ increasePlatform(Platform platform, int biglength, int bigwidth): Platform&lt;div&gt;+ BigPlatform(int biglength, int bigwidth)&lt;/div&gt;" style="text;strokeColor=none;fillColor=none;align=left;verticalAlign=top;spacingLeft=4;spacingRight=4;overflow=hidden;rotatable=0;points=[[0,0.5],[1,0.5]];portConstraint=eastwest;whiteSpace=wrap;html=1;" vertex="1" parent="AGIxf8Lw9R6EGcAsbaSd-29">
          <mxGeometry y="78" width="400" height="42" as="geometry" />
        </mxCell>
        <mxCell id="AGIxf8Lw9R6EGcAsbaSd-33" value="LitteBall" style="swimlane;fontStyle=1;align=center;verticalAlign=top;childLayout=stackLayout;horizontal=1;startSize=26;horizontalStack=0;resizeParent=1;resizeParentMax=0;resizeLast=0;collapsible=1;marginBottom=0;whiteSpace=wrap;html=1;" vertex="1" parent="1">
          <mxGeometry x="-100" y="1160" width="280" height="100" as="geometry" />
        </mxCell>
        <mxCell id="AGIxf8Lw9R6EGcAsbaSd-34" value="- newRadius: int&amp;nbsp;" style="text;strokeColor=none;fillColor=none;align=left;verticalAlign=top;spacingLeft=4;spacingRight=4;overflow=hidden;rotatable=0;points=[[0,0.5],[1,0.5]];portConstraint=eastwest;whiteSpace=wrap;html=1;" vertex="1" parent="AGIxf8Lw9R6EGcAsbaSd-33">
          <mxGeometry y="26" width="280" height="26" as="geometry" />
        </mxCell>
        <mxCell id="AGIxf8Lw9R6EGcAsbaSd-35" value="" style="line;strokeWidth=1;fillColor=none;align=left;verticalAlign=middle;spacingTop=-1;spacingLeft=3;spacingRight=3;rotatable=0;labelPosition=right;points=[];portConstraint=eastwest;strokeColor=inherit;" vertex="1" parent="AGIxf8Lw9R6EGcAsbaSd-33">
          <mxGeometry y="52" width="280" height="8" as="geometry" />
        </mxCell>
        <mxCell id="AGIxf8Lw9R6EGcAsbaSd-36" value="+ reductionBall(Ball ball, int newradius): Ball&lt;div&gt;+ LittleBall(int newradius)&lt;/div&gt;" style="text;strokeColor=none;fillColor=none;align=left;verticalAlign=top;spacingLeft=4;spacingRight=4;overflow=hidden;rotatable=0;points=[[0,0.5],[1,0.5]];portConstraint=eastwest;whiteSpace=wrap;html=1;" vertex="1" parent="AGIxf8Lw9R6EGcAsbaSd-33">
          <mxGeometry y="60" width="280" height="40" as="geometry" />
        </mxCell>
        <mxCell id="AGIxf8Lw9R6EGcAsbaSd-37" value="MoreBalls" style="swimlane;fontStyle=1;align=center;verticalAlign=top;childLayout=stackLayout;horizontal=1;startSize=26;horizontalStack=0;resizeParent=1;resizeParentMax=0;resizeLast=0;collapsible=1;marginBottom=0;whiteSpace=wrap;html=1;" vertex="1" parent="1">
          <mxGeometry x="-340" y="1360" width="280" height="100" as="geometry" />
        </mxCell>
        <mxCell id="AGIxf8Lw9R6EGcAsbaSd-38" value="- cntBalls: int" style="text;strokeColor=none;fillColor=none;align=left;verticalAlign=top;spacingLeft=4;spacingRight=4;overflow=hidden;rotatable=0;points=[[0,0.5],[1,0.5]];portConstraint=eastwest;whiteSpace=wrap;html=1;" vertex="1" parent="AGIxf8Lw9R6EGcAsbaSd-37">
          <mxGeometry y="26" width="280" height="26" as="geometry" />
        </mxCell>
        <mxCell id="AGIxf8Lw9R6EGcAsbaSd-39" value="" style="line;strokeWidth=1;fillColor=none;align=left;verticalAlign=middle;spacingTop=-1;spacingLeft=3;spacingRight=3;rotatable=0;labelPosition=right;points=[];portConstraint=eastwest;strokeColor=inherit;" vertex="1" parent="AGIxf8Lw9R6EGcAsbaSd-37">
          <mxGeometry y="52" width="280" height="8" as="geometry" />
        </mxCell>
        <mxCell id="AGIxf8Lw9R6EGcAsbaSd-40" value="+ generateMoreBalls(Ball ball, int cntballs): Ball[]&lt;div&gt;+ MoreBalls(int cntballs)&lt;br&gt;&lt;div&gt;&lt;br&gt;&lt;/div&gt;&lt;/div&gt;" style="text;strokeColor=none;fillColor=none;align=left;verticalAlign=top;spacingLeft=4;spacingRight=4;overflow=hidden;rotatable=0;points=[[0,0.5],[1,0.5]];portConstraint=eastwest;whiteSpace=wrap;html=1;" vertex="1" parent="AGIxf8Lw9R6EGcAsbaSd-37">
          <mxGeometry y="60" width="280" height="40" as="geometry" />
        </mxCell>
        <mxCell id="AGIxf8Lw9R6EGcAsbaSd-41" value="" style="endArrow=block;endFill=0;endSize=12;html=1;rounded=0;exitX=0.5;exitY=0;exitDx=0;exitDy=0;" edge="1" parent="1" source="AGIxf8Lw9R6EGcAsbaSd-29" target="AGIxf8Lw9R6EGcAsbaSd-15">
          <mxGeometry width="160" relative="1" as="geometry">
            <mxPoint x="-650" y="600" as="sourcePoint" />
            <mxPoint x="-569" y="490" as="targetPoint" />
          </mxGeometry>
        </mxCell>
        <mxCell id="AGIxf8Lw9R6EGcAsbaSd-42" value="" style="endArrow=block;endFill=0;endSize=12;html=1;rounded=0;exitX=0.5;exitY=0;exitDx=0;exitDy=0;" edge="1" parent="1" source="AGIxf8Lw9R6EGcAsbaSd-33" target="AGIxf8Lw9R6EGcAsbaSd-15">
          <mxGeometry width="160" relative="1" as="geometry">
            <mxPoint x="-540" y="630" as="sourcePoint" />
            <mxPoint x="-459" y="520" as="targetPoint" />
          </mxGeometry>
        </mxCell>
        <mxCell id="AGIxf8Lw9R6EGcAsbaSd-43" value="" style="endArrow=block;endFill=0;endSize=12;html=1;rounded=0;exitX=0.5;exitY=0;exitDx=0;exitDy=0;" edge="1" parent="1" source="AGIxf8Lw9R6EGcAsbaSd-37" target="AGIxf8Lw9R6EGcAsbaSd-15">
          <mxGeometry width="160" relative="1" as="geometry">
            <mxPoint x="-380" y="630" as="sourcePoint" />
            <mxPoint x="-299" y="520" as="targetPoint" />
          </mxGeometry>
        </mxCell>
        <mxCell id="AGIxf8Lw9R6EGcAsbaSd-44" value="" style="endArrow=open;dashed=1;endFill=0;endSize=12;html=1;rounded=0;" edge="1" parent="1" source="AGIxf8Lw9R6EGcAsbaSd-33" target="3PfA5iARih0jMsXSvzGV-5">
          <mxGeometry width="160" relative="1" as="geometry">
            <mxPoint x="380" y="1050" as="sourcePoint" />
            <mxPoint x="540" y="1050" as="targetPoint" />
          </mxGeometry>
        </mxCell>
        <mxCell id="AGIxf8Lw9R6EGcAsbaSd-45" value="" style="endArrow=open;dashed=1;endFill=0;endSize=12;html=1;rounded=0;" edge="1" parent="1" source="AGIxf8Lw9R6EGcAsbaSd-37" target="3PfA5iARih0jMsXSvzGV-5">
          <mxGeometry width="160" relative="1" as="geometry">
            <mxPoint x="50" y="1301" as="sourcePoint" />
            <mxPoint x="419" y="1120" as="targetPoint" />
          </mxGeometry>
        </mxCell>
        <mxCell id="AGIxf8Lw9R6EGcAsbaSd-46" value="" style="endArrow=open;dashed=1;endFill=0;endSize=12;html=1;rounded=0;exitX=0.66;exitY=0;exitDx=0;exitDy=0;exitPerimeter=0;" edge="1" parent="1" source="AGIxf8Lw9R6EGcAsbaSd-29" target="3PfA5iARih0jMsXSvzGV-13">
          <mxGeometry width="160" relative="1" as="geometry">
            <mxPoint x="380" y="1160" as="sourcePoint" />
            <mxPoint x="945" y="1190" as="targetPoint" />
          </mxGeometry>
        </mxCell>
        <mxCell id="AGIxf8Lw9R6EGcAsbaSd-48" value="&lt;i&gt;Menu&lt;/i&gt;" style="swimlane;fontStyle=1;align=center;verticalAlign=top;childLayout=stackLayout;horizontal=1;startSize=26;horizontalStack=0;resizeParent=1;resizeParentMax=0;resizeLast=0;collapsible=1;marginBottom=0;whiteSpace=wrap;html=1;" vertex="1" parent="1">
          <mxGeometry x="370" y="-850" width="330" height="140" as="geometry" />
        </mxCell>
        <mxCell id="AGIxf8Lw9R6EGcAsbaSd-49" value="&lt;font&gt;&lt;span style=&quot;font-family: &amp;quot;YS Text&amp;quot;, -apple-system, BlinkMacSystemFont, Arial, Helvetica, &amp;quot;Arial Unicode MS&amp;quot;, sans-serif; background-color: rgb(255, 255, 255);&quot;&gt;# lengthWindow: int&lt;/span&gt;&lt;/font&gt;&lt;div&gt;&lt;font&gt;&lt;span style=&quot;font-family: &amp;quot;YS Text&amp;quot;, -apple-system, BlinkMacSystemFont, Arial, Helvetica, &amp;quot;Arial Unicode MS&amp;quot;, sans-serif; background-color: rgb(255, 255, 255);&quot;&gt;# widthWindow: int&lt;/span&gt;&lt;/font&gt;&lt;/div&gt;" style="text;strokeColor=none;fillColor=none;align=left;verticalAlign=top;spacingLeft=4;spacingRight=4;overflow=hidden;rotatable=0;points=[[0,0.5],[1,0.5]];portConstraint=eastwest;whiteSpace=wrap;html=1;" vertex="1" parent="AGIxf8Lw9R6EGcAsbaSd-48">
          <mxGeometry y="26" width="330" height="44" as="geometry" />
        </mxCell>
        <mxCell id="AGIxf8Lw9R6EGcAsbaSd-50" value="" style="line;strokeWidth=1;fillColor=none;align=left;verticalAlign=middle;spacingTop=-1;spacingLeft=3;spacingRight=3;rotatable=0;labelPosition=right;points=[];portConstraint=eastwest;strokeColor=inherit;" vertex="1" parent="AGIxf8Lw9R6EGcAsbaSd-48">
          <mxGeometry y="70" width="330" height="8" as="geometry" />
        </mxCell>
        <mxCell id="AGIxf8Lw9R6EGcAsbaSd-51" value="+ renderWindow(int&amp;nbsp;&lt;span style=&quot;font-family: &amp;quot;YS Text&amp;quot;, -apple-system, BlinkMacSystemFont, Arial, Helvetica, &amp;quot;Arial Unicode MS&amp;quot;, sans-serif; background-color: rgb(255, 255, 255);&quot;&gt;lengthWindow, int&amp;nbsp;&lt;/span&gt;&lt;span style=&quot;font-family: &amp;quot;YS Text&amp;quot;, -apple-system, BlinkMacSystemFont, Arial, Helvetica, &amp;quot;Arial Unicode MS&amp;quot;, sans-serif; background-color: rgb(255, 255, 255);&quot;&gt;widthWindow&lt;/span&gt;): void&lt;div&gt;+ updateWindow(): void&lt;/div&gt;&lt;div&gt;&lt;span style=&quot;background-color: transparent; color: light-dark(rgb(0, 0, 0), rgb(255, 255, 255));&quot;&gt;+ exit(): void&lt;/span&gt;&amp;nbsp;&lt;/div&gt;" style="text;strokeColor=none;fillColor=none;align=left;verticalAlign=top;spacingLeft=4;spacingRight=4;overflow=hidden;rotatable=0;points=[[0,0.5],[1,0.5]];portConstraint=eastwest;whiteSpace=wrap;html=1;" vertex="1" parent="AGIxf8Lw9R6EGcAsbaSd-48">
          <mxGeometry y="78" width="330" height="62" as="geometry" />
        </mxCell>
        <mxCell id="AGIxf8Lw9R6EGcAsbaSd-52" value="GameField" style="swimlane;fontStyle=1;align=center;verticalAlign=top;childLayout=stackLayout;horizontal=1;startSize=26;horizontalStack=0;resizeParent=1;resizeParentMax=0;resizeLast=0;collapsible=1;marginBottom=0;whiteSpace=wrap;html=1;" vertex="1" parent="1">
          <mxGeometry x="30" y="-158" width="260" height="100" as="geometry" />
        </mxCell>
        <mxCell id="AGIxf8Lw9R6EGcAsbaSd-53" value="- gameobject: GameObject[]" style="text;strokeColor=none;fillColor=none;align=left;verticalAlign=top;spacingLeft=4;spacingRight=4;overflow=hidden;rotatable=0;points=[[0,0.5],[1,0.5]];portConstraint=eastwest;whiteSpace=wrap;html=1;" vertex="1" parent="AGIxf8Lw9R6EGcAsbaSd-52">
          <mxGeometry y="26" width="260" height="26" as="geometry" />
        </mxCell>
        <mxCell id="AGIxf8Lw9R6EGcAsbaSd-54" value="" style="line;strokeWidth=1;fillColor=none;align=left;verticalAlign=middle;spacingTop=-1;spacingLeft=3;spacingRight=3;rotatable=0;labelPosition=right;points=[];portConstraint=eastwest;strokeColor=inherit;" vertex="1" parent="AGIxf8Lw9R6EGcAsbaSd-52">
          <mxGeometry y="52" width="260" height="8" as="geometry" />
        </mxCell>
        <mxCell id="AGIxf8Lw9R6EGcAsbaSd-55" value="+ drawAllObject(GameObject[] gameobject)&lt;div&gt;+ updateAllObject(&lt;span style=&quot;background-color: transparent; color: light-dark(rgb(0, 0, 0), rgb(255, 255, 255));&quot;&gt;GameObject[] gameobject&lt;/span&gt;&lt;span style=&quot;background-color: transparent; color: light-dark(rgb(0, 0, 0), rgb(255, 255, 255));&quot;&gt;)&lt;/span&gt;&lt;/div&gt;" style="text;strokeColor=none;fillColor=none;align=left;verticalAlign=top;spacingLeft=4;spacingRight=4;overflow=hidden;rotatable=0;points=[[0,0.5],[1,0.5]];portConstraint=eastwest;whiteSpace=wrap;html=1;" vertex="1" parent="AGIxf8Lw9R6EGcAsbaSd-52">
          <mxGeometry y="60" width="260" height="40" as="geometry" />
        </mxCell>
        <mxCell id="AGIxf8Lw9R6EGcAsbaSd-56" value="Pause" style="swimlane;fontStyle=1;align=center;verticalAlign=top;childLayout=stackLayout;horizontal=1;startSize=26;horizontalStack=0;resizeParent=1;resizeParentMax=0;resizeLast=0;collapsible=1;marginBottom=0;whiteSpace=wrap;html=1;" vertex="1" parent="1">
          <mxGeometry x="980" y="-417" width="300" height="130" as="geometry" />
        </mxCell>
        <mxCell id="AGIxf8Lw9R6EGcAsbaSd-57" value="- buttonExitGame: Button&lt;div&gt;- buttonContinueGame: Button&lt;/div&gt;" style="text;strokeColor=none;fillColor=none;align=left;verticalAlign=top;spacingLeft=4;spacingRight=4;overflow=hidden;rotatable=0;points=[[0,0.5],[1,0.5]];portConstraint=eastwest;whiteSpace=wrap;html=1;" vertex="1" parent="AGIxf8Lw9R6EGcAsbaSd-56">
          <mxGeometry y="26" width="300" height="44" as="geometry" />
        </mxCell>
        <mxCell id="AGIxf8Lw9R6EGcAsbaSd-58" value="" style="line;strokeWidth=1;fillColor=none;align=left;verticalAlign=middle;spacingTop=-1;spacingLeft=3;spacingRight=3;rotatable=0;labelPosition=right;points=[];portConstraint=eastwest;strokeColor=inherit;" vertex="1" parent="AGIxf8Lw9R6EGcAsbaSd-56">
          <mxGeometry y="70" width="300" height="8" as="geometry" />
        </mxCell>
        <mxCell id="AGIxf8Lw9R6EGcAsbaSd-59" value="+ continue()&lt;br&gt;&lt;div&gt;+ Pause(Button btExitGame,&amp;nbsp;&lt;span style=&quot;background-color: transparent; color: light-dark(rgb(0, 0, 0), rgb(255, 255, 255));&quot;&gt;Button btContinueGame&lt;/span&gt;&lt;span style=&quot;background-color: transparent; color: light-dark(rgb(0, 0, 0), rgb(255, 255, 255));&quot;&gt;)&lt;/span&gt;&lt;/div&gt;" style="text;strokeColor=none;fillColor=none;align=left;verticalAlign=top;spacingLeft=4;spacingRight=4;overflow=hidden;rotatable=0;points=[[0,0.5],[1,0.5]];portConstraint=eastwest;whiteSpace=wrap;html=1;" vertex="1" parent="AGIxf8Lw9R6EGcAsbaSd-56">
          <mxGeometry y="78" width="300" height="52" as="geometry" />
        </mxCell>
        <mxCell id="AGIxf8Lw9R6EGcAsbaSd-60" value="GameOver" style="swimlane;fontStyle=1;align=center;verticalAlign=top;childLayout=stackLayout;horizontal=1;startSize=26;horizontalStack=0;resizeParent=1;resizeParentMax=0;resizeLast=0;collapsible=1;marginBottom=0;whiteSpace=wrap;html=1;" vertex="1" parent="1">
          <mxGeometry x="250" y="-430" width="330" height="150" as="geometry" />
        </mxCell>
        <mxCell id="AGIxf8Lw9R6EGcAsbaSd-61" value="- buttonPlayAgain: Button&lt;div&gt;- buttonExitGame: Button&lt;/div&gt;&lt;div&gt;- finalScore: int&lt;/div&gt;" style="text;strokeColor=none;fillColor=none;align=left;verticalAlign=top;spacingLeft=4;spacingRight=4;overflow=hidden;rotatable=0;points=[[0,0.5],[1,0.5]];portConstraint=eastwest;whiteSpace=wrap;html=1;" vertex="1" parent="AGIxf8Lw9R6EGcAsbaSd-60">
          <mxGeometry y="26" width="330" height="54" as="geometry" />
        </mxCell>
        <mxCell id="AGIxf8Lw9R6EGcAsbaSd-62" value="" style="line;strokeWidth=1;fillColor=none;align=left;verticalAlign=middle;spacingTop=-1;spacingLeft=3;spacingRight=3;rotatable=0;labelPosition=right;points=[];portConstraint=eastwest;strokeColor=inherit;" vertex="1" parent="AGIxf8Lw9R6EGcAsbaSd-60">
          <mxGeometry y="80" width="330" height="8" as="geometry" />
        </mxCell>
        <mxCell id="AGIxf8Lw9R6EGcAsbaSd-63" value="+ printFinalScore(int finalscore)&lt;div&gt;+ playAgain(): void&lt;/div&gt;&lt;div&gt;&lt;div&gt;+ GameOver(Button btPlayAgain, Button btExit, int finalExit)&lt;/div&gt;&lt;/div&gt;" style="text;strokeColor=none;fillColor=none;align=left;verticalAlign=top;spacingLeft=4;spacingRight=4;overflow=hidden;rotatable=0;points=[[0,0.5],[1,0.5]];portConstraint=eastwest;whiteSpace=wrap;html=1;" vertex="1" parent="AGIxf8Lw9R6EGcAsbaSd-60">
          <mxGeometry y="88" width="330" height="62" as="geometry" />
        </mxCell>
        <mxCell id="AGIxf8Lw9R6EGcAsbaSd-64" value="GameProcess" style="swimlane;fontStyle=1;align=center;verticalAlign=top;childLayout=stackLayout;horizontal=1;startSize=26;horizontalStack=0;resizeParent=1;resizeParentMax=0;resizeLast=0;collapsible=1;marginBottom=0;whiteSpace=wrap;html=1;" vertex="1" parent="1">
          <mxGeometry x="-190" y="-440" width="390" height="170" as="geometry" />
        </mxCell>
        <mxCell id="AGIxf8Lw9R6EGcAsbaSd-65" value="- buttonPlay: Button&lt;div&gt;- buttonExit: Button&lt;/div&gt;&lt;div&gt;- buttonPause: Button&lt;/div&gt;&lt;div&gt;- gamefield: GameField&lt;/div&gt;&lt;div&gt;- score: int&lt;/div&gt;&lt;div&gt;&lt;br&gt;&lt;/div&gt;" style="text;strokeColor=none;fillColor=none;align=left;verticalAlign=top;spacingLeft=4;spacingRight=4;overflow=hidden;rotatable=0;points=[[0,0.5],[1,0.5]];portConstraint=eastwest;whiteSpace=wrap;html=1;" vertex="1" parent="AGIxf8Lw9R6EGcAsbaSd-64">
          <mxGeometry y="26" width="390" height="64" as="geometry" />
        </mxCell>
        <mxCell id="AGIxf8Lw9R6EGcAsbaSd-66" value="" style="line;strokeWidth=1;fillColor=none;align=left;verticalAlign=middle;spacingTop=-1;spacingLeft=3;spacingRight=3;rotatable=0;labelPosition=right;points=[];portConstraint=eastwest;strokeColor=inherit;" vertex="1" parent="AGIxf8Lw9R6EGcAsbaSd-64">
          <mxGeometry y="90" width="390" height="8" as="geometry" />
        </mxCell>
        <mxCell id="AGIxf8Lw9R6EGcAsbaSd-67" value="+ createGameField(): GameField&lt;div&gt;+ play(): void&lt;/div&gt;&lt;div&gt;&lt;div&gt;+&amp;nbsp;&lt;span style=&quot;background-color: transparent; color: light-dark(rgb(0, 0, 0), rgb(255, 255, 255));&quot;&gt;printCurrentScore(int score): void&lt;/span&gt;&lt;/div&gt;&lt;div&gt;&lt;span style=&quot;background-color: transparent; color: light-dark(rgb(0, 0, 0), rgb(255, 255, 255));&quot;&gt;GameProcess(Button btPlay, Button btExit, Button btPause, int score)&lt;/span&gt;&lt;/div&gt;&lt;/div&gt;" style="text;strokeColor=none;fillColor=none;align=left;verticalAlign=top;spacingLeft=4;spacingRight=4;overflow=hidden;rotatable=0;points=[[0,0.5],[1,0.5]];portConstraint=eastwest;whiteSpace=wrap;html=1;" vertex="1" parent="AGIxf8Lw9R6EGcAsbaSd-64">
          <mxGeometry y="98" width="390" height="72" as="geometry" />
        </mxCell>
        <mxCell id="AGIxf8Lw9R6EGcAsbaSd-72" value="" style="endArrow=block;endFill=0;endSize=12;html=1;rounded=0;exitX=0.868;exitY=-0.014;exitDx=0;exitDy=0;exitPerimeter=0;" edge="1" parent="1" source="AGIxf8Lw9R6EGcAsbaSd-60" target="AGIxf8Lw9R6EGcAsbaSd-48">
          <mxGeometry width="160" relative="1" as="geometry">
            <mxPoint x="130" y="-74" as="sourcePoint" />
            <mxPoint x="400" y="-140" as="targetPoint" />
          </mxGeometry>
        </mxCell>
        <mxCell id="AGIxf8Lw9R6EGcAsbaSd-73" value="" style="endArrow=block;endFill=0;endSize=12;html=1;rounded=0;exitX=0.089;exitY=0;exitDx=0;exitDy=0;exitPerimeter=0;entryX=0.039;entryY=1;entryDx=0;entryDy=0;entryPerimeter=0;" edge="1" parent="1" source="AGIxf8Lw9R6EGcAsbaSd-64" target="AGIxf8Lw9R6EGcAsbaSd-51">
          <mxGeometry width="160" relative="1" as="geometry">
            <mxPoint x="280" y="-368" as="sourcePoint" />
            <mxPoint x="448" y="-490" as="targetPoint" />
          </mxGeometry>
        </mxCell>
        <mxCell id="AGIxf8Lw9R6EGcAsbaSd-74" value="" style="endArrow=block;endFill=0;endSize=12;html=1;rounded=0;exitX=0.5;exitY=0;exitDx=0;exitDy=0;" edge="1" parent="1" source="AGIxf8Lw9R6EGcAsbaSd-56" target="AGIxf8Lw9R6EGcAsbaSd-48">
          <mxGeometry width="160" relative="1" as="geometry">
            <mxPoint x="500" y="-338" as="sourcePoint" />
            <mxPoint x="668" y="-460" as="targetPoint" />
          </mxGeometry>
        </mxCell>
        <mxCell id="AGIxf8Lw9R6EGcAsbaSd-75" value="Button" style="swimlane;fontStyle=1;align=center;verticalAlign=top;childLayout=stackLayout;horizontal=1;startSize=26;horizontalStack=0;resizeParent=1;resizeParentMax=0;resizeLast=0;collapsible=1;marginBottom=0;whiteSpace=wrap;html=1;" vertex="1" parent="1">
          <mxGeometry x="430" y="-180" width="350" height="130" as="geometry" />
        </mxCell>
        <mxCell id="AGIxf8Lw9R6EGcAsbaSd-76" value="&lt;span style=&quot;font-family: &amp;quot;YS Text&amp;quot;, -apple-system, BlinkMacSystemFont, Arial, Helvetica, &amp;quot;Arial Unicode MS&amp;quot;, sans-serif; background-color: rgb(255, 255, 255);&quot;&gt;- lengthWindow: int&lt;/span&gt;&lt;div&gt;&lt;span style=&quot;font-family: &amp;quot;YS Text&amp;quot;, -apple-system, BlinkMacSystemFont, Arial, Helvetica, &amp;quot;Arial Unicode MS&amp;quot;, sans-serif; background-color: rgb(255, 255, 255);&quot;&gt;- widthWindow: int&lt;/span&gt;&lt;/div&gt;&lt;div&gt;&lt;span style=&quot;font-family: &amp;quot;YS Text&amp;quot;, -apple-system, BlinkMacSystemFont, Arial, Helvetica, &amp;quot;Arial Unicode MS&amp;quot;, sans-serif; background-color: rgb(255, 255, 255);&quot;&gt;- nameButton: String&lt;/span&gt;&lt;/div&gt;" style="text;strokeColor=none;fillColor=none;align=left;verticalAlign=top;spacingLeft=4;spacingRight=4;overflow=hidden;rotatable=0;points=[[0,0.5],[1,0.5]];portConstraint=eastwest;whiteSpace=wrap;html=1;" vertex="1" parent="AGIxf8Lw9R6EGcAsbaSd-75">
          <mxGeometry y="26" width="350" height="54" as="geometry" />
        </mxCell>
        <mxCell id="AGIxf8Lw9R6EGcAsbaSd-77" value="" style="line;strokeWidth=1;fillColor=none;align=left;verticalAlign=middle;spacingTop=-1;spacingLeft=3;spacingRight=3;rotatable=0;labelPosition=right;points=[];portConstraint=eastwest;strokeColor=inherit;" vertex="1" parent="AGIxf8Lw9R6EGcAsbaSd-75">
          <mxGeometry y="80" width="350" height="8" as="geometry" />
        </mxCell>
        <mxCell id="AGIxf8Lw9R6EGcAsbaSd-78" value="+ click(): void&lt;div&gt;+ Button (int l&lt;span style=&quot;background-color: rgb(255, 255, 255); font-family: &amp;quot;YS Text&amp;quot;, -apple-system, BlinkMacSystemFont, Arial, Helvetica, &amp;quot;Arial Unicode MS&amp;quot;, sans-serif; color: light-dark(rgb(0, 0, 0), rgb(255, 255, 255));&quot;&gt;engthWindow, int&amp;nbsp;&lt;/span&gt;&lt;span style=&quot;background-color: rgb(255, 255, 255); font-family: &amp;quot;YS Text&amp;quot;, -apple-system, BlinkMacSystemFont, Arial, Helvetica, &amp;quot;Arial Unicode MS&amp;quot;, sans-serif; color: light-dark(rgb(0, 0, 0), rgb(255, 255, 255));&quot;&gt;widthWindow, int&amp;nbsp;&lt;/span&gt;&lt;span style=&quot;background-color: rgb(255, 255, 255); font-family: &amp;quot;YS Text&amp;quot;, -apple-system, BlinkMacSystemFont, Arial, Helvetica, &amp;quot;Arial Unicode MS&amp;quot;, sans-serif; color: light-dark(rgb(0, 0, 0), rgb(255, 255, 255));&quot;&gt;nameButton&lt;/span&gt;&lt;span style=&quot;background-color: transparent; color: light-dark(rgb(0, 0, 0), rgb(255, 255, 255));&quot;&gt;)&lt;/span&gt;&lt;/div&gt;" style="text;strokeColor=none;fillColor=none;align=left;verticalAlign=top;spacingLeft=4;spacingRight=4;overflow=hidden;rotatable=0;points=[[0,0.5],[1,0.5]];portConstraint=eastwest;whiteSpace=wrap;html=1;" vertex="1" parent="AGIxf8Lw9R6EGcAsbaSd-75">
          <mxGeometry y="88" width="350" height="42" as="geometry" />
        </mxCell>
        <mxCell id="AGIxf8Lw9R6EGcAsbaSd-79" value="Option" style="swimlane;fontStyle=1;align=center;verticalAlign=top;childLayout=stackLayout;horizontal=1;startSize=26;horizontalStack=0;resizeParent=1;resizeParentMax=0;resizeLast=0;collapsible=1;marginBottom=0;whiteSpace=wrap;html=1;" vertex="1" parent="1">
          <mxGeometry x="610" y="-430" width="300" height="150" as="geometry" />
        </mxCell>
        <mxCell id="AGIxf8Lw9R6EGcAsbaSd-80" value="- volume: int&lt;div&gt;- buttonIncVolume: Button&lt;/div&gt;&lt;div&gt;- buttonDecVolume: Button&lt;br&gt;&lt;div&gt;&lt;br&gt;&lt;/div&gt;&lt;/div&gt;" style="text;strokeColor=none;fillColor=none;align=left;verticalAlign=top;spacingLeft=4;spacingRight=4;overflow=hidden;rotatable=0;points=[[0,0.5],[1,0.5]];portConstraint=eastwest;whiteSpace=wrap;html=1;" vertex="1" parent="AGIxf8Lw9R6EGcAsbaSd-79">
          <mxGeometry y="26" width="300" height="54" as="geometry" />
        </mxCell>
        <mxCell id="AGIxf8Lw9R6EGcAsbaSd-81" value="" style="line;strokeWidth=1;fillColor=none;align=left;verticalAlign=middle;spacingTop=-1;spacingLeft=3;spacingRight=3;rotatable=0;labelPosition=right;points=[];portConstraint=eastwest;strokeColor=inherit;" vertex="1" parent="AGIxf8Lw9R6EGcAsbaSd-79">
          <mxGeometry y="80" width="300" height="8" as="geometry" />
        </mxCell>
        <mxCell id="AGIxf8Lw9R6EGcAsbaSd-82" value="+ decVulume(int volume): void&lt;div&gt;+ incVolume(int volume): void&lt;/div&gt;&lt;div&gt;+ muteVolume(int volume): void&lt;/div&gt;&lt;div&gt;+ Option(int volume, Button btIncVol,&amp;nbsp;&lt;span style=&quot;background-color: transparent; color: light-dark(rgb(0, 0, 0), rgb(255, 255, 255));&quot;&gt;Button btDecVol&lt;/span&gt;&lt;span style=&quot;background-color: transparent; color: light-dark(rgb(0, 0, 0), rgb(255, 255, 255));&quot;&gt;)&lt;/span&gt;&lt;/div&gt;&lt;div&gt;&lt;br&gt;&lt;/div&gt;" style="text;strokeColor=none;fillColor=none;align=left;verticalAlign=top;spacingLeft=4;spacingRight=4;overflow=hidden;rotatable=0;points=[[0,0.5],[1,0.5]];portConstraint=eastwest;whiteSpace=wrap;html=1;" vertex="1" parent="AGIxf8Lw9R6EGcAsbaSd-79">
          <mxGeometry y="88" width="300" height="62" as="geometry" />
        </mxCell>
        <mxCell id="AGIxf8Lw9R6EGcAsbaSd-87" value="" style="endArrow=diamondThin;endFill=0;endSize=24;html=1;rounded=0;exitX=0.5;exitY=0;exitDx=0;exitDy=0;" edge="1" parent="1" source="3PfA5iARih0jMsXSvzGV-1" target="AGIxf8Lw9R6EGcAsbaSd-52">
          <mxGeometry width="160" relative="1" as="geometry">
            <mxPoint x="40" y="90" as="sourcePoint" />
            <mxPoint x="200" y="90" as="targetPoint" />
          </mxGeometry>
        </mxCell>
        <mxCell id="AGIxf8Lw9R6EGcAsbaSd-89" value="" style="endArrow=block;endFill=0;endSize=12;html=1;rounded=0;exitX=0.5;exitY=0;exitDx=0;exitDy=0;" edge="1" parent="1" source="AGIxf8Lw9R6EGcAsbaSd-79" target="AGIxf8Lw9R6EGcAsbaSd-48">
          <mxGeometry width="160" relative="1" as="geometry">
            <mxPoint x="450" y="-70" as="sourcePoint" />
            <mxPoint x="574" y="-360" as="targetPoint" />
          </mxGeometry>
        </mxCell>
        <mxCell id="AGIxf8Lw9R6EGcAsbaSd-90" value="" style="endArrow=diamondThin;endFill=1;endSize=24;html=1;rounded=0;exitX=0.5;exitY=0;exitDx=0;exitDy=0;" edge="1" parent="1" source="AGIxf8Lw9R6EGcAsbaSd-52" target="AGIxf8Lw9R6EGcAsbaSd-64">
          <mxGeometry width="160" relative="1" as="geometry">
            <mxPoint x="380" y="-66" as="sourcePoint" />
            <mxPoint x="380" y="-150" as="targetPoint" />
          </mxGeometry>
        </mxCell>
        <mxCell id="AGIxf8Lw9R6EGcAsbaSd-95" value="" style="endArrow=diamondThin;endFill=1;endSize=24;html=1;rounded=0;entryX=0.5;entryY=0;entryDx=0;entryDy=0;" edge="1" parent="1" target="AGIxf8Lw9R6EGcAsbaSd-75">
          <mxGeometry width="160" relative="1" as="geometry">
            <mxPoint x="605" y="-240" as="sourcePoint" />
            <mxPoint x="598" y="-280" as="targetPoint" />
          </mxGeometry>
        </mxCell>
        <mxCell id="AGIxf8Lw9R6EGcAsbaSd-96" value="" style="endArrow=none;endFill=1;endSize=24;html=1;rounded=0;startFill=0;" edge="1" parent="1" source="AGIxf8Lw9R6EGcAsbaSd-56">
          <mxGeometry width="160" relative="1" as="geometry">
            <mxPoint x="980" y="-300" as="sourcePoint" />
            <mxPoint x="850" y="-240" as="targetPoint" />
            <Array as="points">
              <mxPoint x="1130" y="-240" />
            </Array>
          </mxGeometry>
        </mxCell>
        <mxCell id="AGIxf8Lw9R6EGcAsbaSd-97" value="" style="endArrow=none;endFill=1;endSize=24;html=1;rounded=0;startFill=0;exitX=0.493;exitY=1.025;exitDx=0;exitDy=0;exitPerimeter=0;" edge="1" parent="1" source="AGIxf8Lw9R6EGcAsbaSd-63">
          <mxGeometry width="160" relative="1" as="geometry">
            <mxPoint x="986" y="-210" as="sourcePoint" />
            <mxPoint x="760" y="-240" as="targetPoint" />
            <Array as="points">
              <mxPoint x="413" y="-240" />
            </Array>
          </mxGeometry>
        </mxCell>
        <mxCell id="AGIxf8Lw9R6EGcAsbaSd-98" value="" style="endArrow=none;endFill=1;endSize=24;html=1;rounded=0;startFill=0;" edge="1" parent="1" source="AGIxf8Lw9R6EGcAsbaSd-79">
          <mxGeometry width="160" relative="1" as="geometry">
            <mxPoint x="1036" y="-170" as="sourcePoint" />
            <mxPoint x="850" y="-240" as="targetPoint" />
            <Array as="points">
              <mxPoint x="760" y="-240" />
            </Array>
          </mxGeometry>
        </mxCell>
        <mxCell id="AGIxf8Lw9R6EGcAsbaSd-99" value="" style="endArrow=none;endFill=1;endSize=24;html=1;rounded=0;startFill=0;exitX=0.874;exitY=0.999;exitDx=0;exitDy=0;exitPerimeter=0;" edge="1" parent="1" source="AGIxf8Lw9R6EGcAsbaSd-67">
          <mxGeometry width="160" relative="1" as="geometry">
            <mxPoint x="840" y="-150" as="sourcePoint" />
            <mxPoint x="490" y="-240" as="targetPoint" />
            <Array as="points">
              <mxPoint x="150" y="-240" />
            </Array>
          </mxGeometry>
        </mxCell>
        <mxCell id="AGIxf8Lw9R6EGcAsbaSd-101" value="&lt;b&gt;&amp;lt;interface&amp;gt;&lt;/b&gt;&lt;div&gt;&lt;b&gt;WorkInFile&lt;/b&gt;&lt;/div&gt;" style="swimlane;fontStyle=0;childLayout=stackLayout;horizontal=1;startSize=26;fillColor=none;horizontalStack=0;resizeParent=1;resizeParentMax=0;resizeLast=0;collapsible=1;marginBottom=0;whiteSpace=wrap;html=1;" vertex="1" parent="1">
          <mxGeometry x="170" y="-560" width="180" height="60" as="geometry" />
        </mxCell>
        <mxCell id="AGIxf8Lw9R6EGcAsbaSd-102" value="+ workInFile(File file): void" style="text;strokeColor=none;fillColor=none;align=left;verticalAlign=top;spacingLeft=4;spacingRight=4;overflow=hidden;rotatable=0;points=[[0,0.5],[1,0.5]];portConstraint=eastwest;whiteSpace=wrap;html=1;" vertex="1" parent="AGIxf8Lw9R6EGcAsbaSd-101">
          <mxGeometry y="26" width="180" height="34" as="geometry" />
        </mxCell>
        <mxCell id="AGIxf8Lw9R6EGcAsbaSd-103" value="" style="endArrow=block;dashed=1;endFill=0;endSize=12;html=1;rounded=0;exitX=0.791;exitY=0.006;exitDx=0;exitDy=0;exitPerimeter=0;" edge="1" parent="1" source="AGIxf8Lw9R6EGcAsbaSd-64" target="AGIxf8Lw9R6EGcAsbaSd-101">
          <mxGeometry width="160" relative="1" as="geometry">
            <mxPoint x="130" y="-520" as="sourcePoint" />
            <mxPoint x="20" y="-520" as="targetPoint" />
          </mxGeometry>
        </mxCell>
        <mxCell id="AGIxf8Lw9R6EGcAsbaSd-104" value="" style="endArrow=block;dashed=1;endFill=0;endSize=12;html=1;rounded=0;exitX=0.5;exitY=0;exitDx=0;exitDy=0;" edge="1" parent="1" source="AGIxf8Lw9R6EGcAsbaSd-60" target="AGIxf8Lw9R6EGcAsbaSd-101">
          <mxGeometry width="160" relative="1" as="geometry">
            <mxPoint x="460" y="-520" as="sourcePoint" />
            <mxPoint x="350" y="-520" as="targetPoint" />
          </mxGeometry>
        </mxCell>
      </root>
    </mxGraphModel>
  </diagram>
</mxfile>
